<svg width="25" height="24" viewBox="0 0 25 24" fill="none" xmlns="http://www.w3.org/2000/svg">
<g clip-path="url(#clip0_315_38)">
<path d="M19.4 -0.000529194H5.6C4.26103 -0.012528 2.972 0.507218 2.01584 1.44463C1.05968 2.38204 0.514515 3.66053 0.5 4.99947L0.5 7.99947C0.5 8.26469 0.605357 8.51904 0.792893 8.70658C0.98043 8.89411 1.23478 8.99947 1.5 8.99947C1.76522 8.99947 2.01957 8.89411 2.20711 8.70658C2.39464 8.51904 2.5 8.26469 2.5 7.99947V4.99947C2.51421 4.19087 2.84856 3.42091 3.42971 2.85851C4.01087 2.2961 4.79137 1.98716 5.6 1.99947H19.4C20.2086 1.98716 20.9891 2.2961 21.5703 2.85851C22.1514 3.42091 22.4858 4.19087 22.5 4.99947V18.9995C22.4858 19.8081 22.1514 20.578 21.5703 21.1404C20.9891 21.7028 20.2086 22.0118 19.4 21.9995H5.6C4.79137 22.0118 4.01087 21.7028 3.42971 21.1404C2.84856 20.578 2.51421 19.8081 2.5 18.9995V15.9995C2.5 15.7343 2.39464 15.4799 2.20711 15.2924C2.01957 15.1048 1.76522 14.9995 1.5 14.9995C1.23478 14.9995 0.98043 15.1048 0.792893 15.2924C0.605357 15.4799 0.5 15.7343 0.5 15.9995L0.5 18.9995C0.514515 20.3384 1.05968 21.6169 2.01584 22.5543C2.972 23.4917 4.26103 24.0115 5.6 23.9995H19.4C20.739 24.0115 22.028 23.4917 22.9842 22.5543C23.9403 21.6169 24.4855 20.3384 24.5 18.9995V4.99947C24.4855 3.66053 23.9403 2.38204 22.9842 1.44463C22.028 0.507218 20.739 -0.012528 19.4 -0.000529194Z" fill="white"/>
<path d="M3.5 11.9992C3.5 12.2644 3.60536 12.5188 3.79289 12.7063C3.98043 12.8938 4.23478 12.9992 4.5 12.9992L17.688 12.9692L13.365 17.2922C13.2695 17.3844 13.1933 17.4948 13.1409 17.6168C13.0885 17.7388 13.0609 17.87 13.0597 18.0028C13.0586 18.1356 13.0839 18.2672 13.1342 18.3901C13.1845 18.513 13.2587 18.6247 13.3526 18.7186C13.4465 18.8125 13.5581 18.8867 13.681 18.937C13.8039 18.9873 13.9356 19.0126 14.0684 19.0114C14.2012 19.0103 14.3324 18.9827 14.4544 18.9303C14.5764 18.8779 14.6868 18.8017 14.779 18.7062L19.365 14.1202C19.9274 13.5576 20.2434 12.7947 20.2434 11.9992C20.2434 11.2037 19.9274 10.4408 19.365 9.87819L14.781 5.29219C14.5924 5.11003 14.3398 5.00923 14.0776 5.01151C13.8154 5.01379 13.5646 5.11896 13.3792 5.30437C13.1938 5.48978 13.0886 5.74059 13.0863 6.00279C13.084 6.26498 13.1848 6.51758 13.367 6.70619L17.629 10.9692L4.5 10.9992C4.23478 10.9992 3.98043 11.1045 3.79289 11.2921C3.60536 11.4796 3.5 11.734 3.5 11.9992Z" fill="white"/>
</g>
<defs>
<clipPath id="clip0_315_38">
<rect width="24" height="24" fill="white" transform="translate(0.5)"/>
</clipPath>
</defs>
</svg>
