<svg width="24" height="25" viewBox="0 0 24 25" fill="none" xmlns="http://www.w3.org/2000/svg">
<g clip-path="url(#clip0_237_466)">
<path d="M17.0002 8.50087H7.00024V7.50087C6.99994 6.39228 7.36807 5.31501 8.04676 4.43845C8.72545 3.56188 9.67622 2.93573 10.7496 2.65843C11.8229 2.38113 12.958 2.46842 13.9763 2.90656C14.9947 3.3447 15.8385 4.10885 16.3752 5.07887C16.439 5.19371 16.5248 5.29487 16.6276 5.37657C16.7305 5.45827 16.8484 5.51892 16.9747 5.55504C17.101 5.59116 17.2331 5.60205 17.3636 5.5871C17.4941 5.57214 17.6204 5.53163 17.7352 5.46787C17.8501 5.40412 17.9512 5.31836 18.0329 5.21551C18.1146 5.11266 18.1753 4.99473 18.2114 4.86844C18.2475 4.74215 18.2584 4.60998 18.2435 4.47949C18.2285 4.34899 18.188 4.22271 18.1242 4.10787C17.3725 2.75019 16.191 1.68079 14.7653 1.06779C13.3396 0.45478 11.7506 0.332922 10.2481 0.721368C8.74562 1.10981 7.41481 1.98654 6.46487 3.21372C5.51493 4.44091 4.99973 5.94898 5.00024 7.50087V8.92487C4.1096 9.31358 3.35154 9.9534 2.81874 10.7661C2.28595 11.5788 2.00152 12.5291 2.00024 13.5009V19.5009C2.00183 20.8265 2.52913 22.0973 3.46646 23.0347C4.4038 23.972 5.67465 24.4993 7.00024 24.5009H17.0002C18.3258 24.4993 19.5967 23.972 20.534 23.0347C21.4714 22.0973 21.9987 20.8265 22.0002 19.5009V13.5009C21.9987 12.1753 21.4714 10.9044 20.534 9.96709C19.5967 9.02975 18.3258 8.50246 17.0002 8.50087ZM20.0002 19.5009C20.0002 20.2965 19.6842 21.0596 19.1216 21.6222C18.559 22.1848 17.7959 22.5009 17.0002 22.5009H7.00024C6.20459 22.5009 5.44153 22.1848 4.87892 21.6222C4.31631 21.0596 4.00024 20.2965 4.00024 19.5009V13.5009C4.00024 12.7052 4.31631 11.9422 4.87892 11.3796C5.44153 10.8169 6.20459 10.5009 7.00024 10.5009H17.0002C17.7959 10.5009 18.559 10.8169 19.1216 11.3796C19.6842 11.9422 20.0002 12.7052 20.0002 13.5009V19.5009Z" fill="#374957"/>
<path d="M12.0002 14.5005C11.735 14.5005 11.4807 14.6058 11.2931 14.7934C11.1056 14.9809 11.0002 15.2353 11.0002 15.5005V17.5005C11.0002 17.7657 11.1056 18.0201 11.2931 18.2076C11.4807 18.3951 11.735 18.5005 12.0002 18.5005C12.2655 18.5005 12.5198 18.3951 12.7074 18.2076C12.8949 18.0201 13.0003 17.7657 13.0003 17.5005V15.5005C13.0003 15.2353 12.8949 14.9809 12.7074 14.7934C12.5198 14.6058 12.2655 14.5005 12.0002 14.5005Z" fill="#374957"/>
</g>
<defs>
<clipPath id="clip0_237_466">
<rect width="24" height="24" fill="white" transform="translate(0 0.5)"/>
</clipPath>
</defs>
</svg>
